<svg width="132" height="274" viewBox="0 0 132 274" fill="none" xmlns="http://www.w3.org/2000/svg">
<path d="M18.835 56.045V39.35H47.92V116H29.23V56.045H18.835Z" fill="white"/>
<path d="M18.835 56.045H12.835V62.045H18.835V56.045ZM18.835 39.35V33.35H12.835V39.35H18.835ZM47.92 39.35H53.92V33.35H47.92V39.35ZM47.92 116V122H53.92V116H47.92ZM29.23 116H23.23V122H29.23V116ZM29.23 56.045H35.23V50.045H29.23V56.045ZM24.835 56.045V39.35H12.835V56.045H24.835ZM18.835 45.35H47.92V33.35H18.835V45.35ZM41.92 39.35V116H53.92V39.35H41.92ZM47.92 110H29.23V122H47.92V110ZM35.23 116V56.045H23.23V116H35.23ZM29.23 50.045H18.835V62.045H29.23V50.045Z" fill="#303443"/>
<path d="M79.335 172.045V155.35H108.42V232H89.73V172.045H79.335Z" fill="white"/>
<path d="M79.335 172.045H73.335V178.045H79.335V172.045ZM79.335 155.35V149.35H73.335V155.35H79.335ZM108.42 155.35H114.42V149.35H108.42V155.35ZM108.42 232V238H114.42V232H108.42ZM89.73 232H83.73V238H89.73V232ZM89.73 172.045H95.73V166.045H89.73V172.045ZM85.335 172.045V155.35H73.335V172.045H85.335ZM79.335 161.35H108.42V149.35H79.335V161.35ZM102.42 155.35V232H114.42V155.35H102.42ZM108.42 226H89.73V238H108.42V226ZM95.73 232V172.045H83.73V232H95.73ZM89.73 166.045H79.335V178.045H89.73V166.045Z" fill="#303443"/>
<path d="M66.725 93.625C66.725 81.585 69.035 72.1 73.655 65.17C78.345 58.24 85.87 54.775 96.23 54.775C106.59 54.775 114.08 58.24 118.7 65.17C123.39 72.1 125.735 81.585 125.735 93.625C125.735 105.805 123.39 115.36 118.7 122.29C114.08 129.22 106.59 132.685 96.23 132.685C85.87 132.685 78.345 129.22 73.655 122.29C69.035 115.36 66.725 105.805 66.725 93.625ZM108.095 93.625C108.095 86.555 107.325 81.13 105.785 77.35C104.245 73.5 101.06 71.575 96.23 71.575C91.4 71.575 88.215 73.5 86.675 77.35C85.135 81.13 84.365 86.555 84.365 93.625C84.365 98.385 84.645 102.34 85.205 105.49C85.765 108.57 86.885 111.09 88.565 113.05C90.315 114.94 92.87 115.885 96.23 115.885C99.59 115.885 102.11 114.94 103.79 113.05C105.54 111.09 106.695 108.57 107.255 105.49C107.815 102.34 108.095 98.385 108.095 93.625Z" fill="white"/>
<path d="M73.655 65.17L68.686 61.8071L68.6743 61.8244L68.6627 61.8418L73.655 65.17ZM118.7 65.17L113.708 68.4982L113.719 68.5156L113.731 68.5329L118.7 65.17ZM118.7 122.29L113.731 118.927L113.719 118.944L113.708 118.962L118.7 122.29ZM73.655 122.29L68.6627 125.618L68.6743 125.636L68.686 125.653L73.655 122.29ZM105.785 77.35L100.214 79.5783L100.221 79.5961L100.228 79.6138L105.785 77.35ZM86.675 77.35L92.2316 79.6138L92.2388 79.5961L92.2459 79.5783L86.675 77.35ZM85.205 105.49L79.2976 106.54L79.2997 106.552L79.3018 106.563L85.205 105.49ZM88.565 113.05L84.0095 116.955L84.0843 117.042L84.1624 117.126L88.565 113.05ZM103.79 113.05L99.3144 109.054L99.3055 109.064L103.79 113.05ZM107.255 105.49L113.158 106.563L113.16 106.552L113.162 106.54L107.255 105.49ZM72.725 93.625C72.725 82.2672 74.9165 74.0944 78.6473 68.4982L68.6627 61.8418C63.1535 70.1056 60.725 80.9028 60.725 93.625H72.725ZM78.624 68.5329C81.927 63.6523 87.3237 60.775 96.23 60.775V48.775C84.4163 48.775 74.763 52.8277 68.686 61.8071L78.624 68.5329ZM96.23 60.775C105.139 60.775 110.477 63.652 113.708 68.4982L123.692 61.8418C117.683 52.828 108.041 48.775 96.23 48.775V60.775ZM113.731 68.5329C117.514 74.1227 119.735 82.2814 119.735 93.625H131.735C131.735 80.8885 129.266 70.0773 123.669 61.8071L113.731 68.5329ZM119.735 93.625C119.735 105.125 117.507 113.347 113.731 118.927L123.669 125.653C129.273 117.373 131.735 106.485 131.735 93.625H119.735ZM113.708 118.962C110.477 123.808 105.139 126.685 96.23 126.685V138.685C108.041 138.685 117.683 134.632 123.692 125.618L113.708 118.962ZM96.23 126.685C87.3237 126.685 81.927 123.808 78.624 118.927L68.686 125.653C74.763 134.632 84.4163 138.685 96.23 138.685V126.685ZM78.6473 118.962C74.9229 113.375 72.725 105.139 72.725 93.625H60.725C60.725 106.471 63.1471 117.345 68.6627 125.618L78.6473 118.962ZM114.095 93.625C114.095 86.2634 113.314 79.9278 111.342 75.0862L100.228 79.6138C101.336 82.3322 102.095 86.8466 102.095 93.625H114.095ZM111.356 75.1217C110.16 72.1309 108.181 69.598 105.345 67.8838C102.576 66.2103 99.4198 65.575 96.23 65.575V77.575C97.8702 77.575 98.7215 77.9022 99.1377 78.1537C99.4865 78.3645 99.8704 78.7191 100.214 79.5783L111.356 75.1217ZM96.23 65.575C93.0402 65.575 89.884 66.2103 87.1152 67.8838C84.279 69.598 82.3004 72.1309 81.1041 75.1217L92.2459 79.5783C92.5896 78.7191 92.9735 78.3645 93.3223 78.1537C93.7385 77.9022 94.5898 77.575 96.23 77.575V65.575ZM81.1184 75.0862C79.146 79.9278 78.365 86.2634 78.365 93.625H90.365C90.365 86.8466 91.124 82.3322 92.2316 79.6138L81.1184 75.0862ZM78.365 93.625C78.365 98.5846 78.6541 102.92 79.2976 106.54L91.1124 104.44C90.6359 101.76 90.365 98.1854 90.365 93.625H78.365ZM79.3018 106.563C80.0117 110.468 81.5036 114.031 84.0095 116.955L93.1205 109.145C92.2664 108.149 91.5184 106.672 91.1082 104.417L79.3018 106.563ZM84.1624 117.126C87.3672 120.588 91.7349 121.885 96.23 121.885V109.885C94.0051 109.885 93.2628 109.292 92.9676 108.974L84.1624 117.126ZM96.23 121.885C100.71 121.885 105.113 120.593 108.274 117.036L99.3055 109.064C99.1068 109.287 98.4701 109.885 96.23 109.885V121.885ZM108.266 117.046C110.882 114.116 112.439 110.521 113.158 106.563L101.352 104.417C100.951 106.619 100.198 108.064 99.3144 109.054L108.266 117.046ZM113.162 106.54C113.806 102.92 114.095 98.5846 114.095 93.625H102.095C102.095 98.1854 101.824 101.76 101.348 104.44L113.162 106.54Z" fill="#303443"/>
<path d="M6.225 172.625C6.225 160.585 8.535 151.1 13.155 144.17C17.845 137.24 25.37 133.775 35.73 133.775C46.09 133.775 53.58 137.24 58.2 144.17C62.89 151.1 65.235 160.585 65.235 172.625C65.235 184.805 62.89 194.36 58.2 201.29C53.58 208.22 46.09 211.685 35.73 211.685C25.37 211.685 17.845 208.22 13.155 201.29C8.535 194.36 6.225 184.805 6.225 172.625ZM47.595 172.625C47.595 165.555 46.825 160.13 45.285 156.35C43.745 152.5 40.56 150.575 35.73 150.575C30.9 150.575 27.715 152.5 26.175 156.35C24.635 160.13 23.865 165.555 23.865 172.625C23.865 177.385 24.145 181.34 24.705 184.49C25.265 187.57 26.385 190.09 28.065 192.05C29.815 193.94 32.37 194.885 35.73 194.885C39.09 194.885 41.61 193.94 43.29 192.05C45.04 190.09 46.195 187.57 46.755 184.49C47.315 181.34 47.595 177.385 47.595 172.625Z" fill="white"/>
<path d="M13.155 144.17L8.18598 140.807L8.17428 140.824L8.1627 140.842L13.155 144.17ZM58.2 144.17L53.2077 147.498L53.2193 147.516L53.231 147.533L58.2 144.17ZM58.2 201.29L53.231 197.927L53.2193 197.944L53.2077 197.962L58.2 201.29ZM13.155 201.29L8.1627 204.618L8.17428 204.636L8.18599 204.653L13.155 201.29ZM45.285 156.35L39.7141 158.578L39.7212 158.596L39.7284 158.614L45.285 156.35ZM26.175 156.35L31.7316 158.614L31.7388 158.596L31.7459 158.578L26.175 156.35ZM24.705 184.49L18.7976 185.54L18.7997 185.552L18.8018 185.563L24.705 184.49ZM28.065 192.05L23.5095 195.955L23.5843 196.042L23.6624 196.126L28.065 192.05ZM43.29 192.05L38.8144 188.054L38.8055 188.064L43.29 192.05ZM46.755 184.49L52.6582 185.563L52.6603 185.552L52.6624 185.54L46.755 184.49ZM12.225 172.625C12.225 161.267 14.4165 153.094 18.1473 147.498L8.1627 140.842C2.65349 149.106 0.225 159.903 0.225 172.625H12.225ZM18.124 147.533C21.427 142.652 26.8237 139.775 35.73 139.775V127.775C23.9163 127.775 14.263 131.828 8.18598 140.807L18.124 147.533ZM35.73 139.775C44.6394 139.775 49.9769 142.652 53.2077 147.498L63.1923 140.842C57.1831 131.828 47.5406 127.775 35.73 127.775V139.775ZM53.231 147.533C57.014 153.123 59.235 161.281 59.235 172.625H71.235C71.235 159.889 68.766 149.077 63.169 140.807L53.231 147.533ZM59.235 172.625C59.235 184.125 57.0075 192.347 53.231 197.927L63.169 204.653C68.7725 196.373 71.235 185.485 71.235 172.625H59.235ZM53.2077 197.962C49.9769 202.808 44.6394 205.685 35.73 205.685V217.685C47.5406 217.685 57.1831 213.632 63.1923 204.618L53.2077 197.962ZM35.73 205.685C26.8237 205.685 21.427 202.808 18.124 197.927L8.18599 204.653C14.263 213.632 23.9163 217.685 35.73 217.685V205.685ZM18.1473 197.962C14.4229 192.375 12.225 184.139 12.225 172.625H0.225C0.225 185.471 2.64713 196.345 8.1627 204.618L18.1473 197.962ZM53.595 172.625C53.595 165.263 52.814 158.928 50.8416 154.086L39.7284 158.614C40.836 161.332 41.595 165.847 41.595 172.625H53.595ZM50.8559 154.122C49.6596 151.131 47.681 148.598 44.8448 146.884C42.076 145.21 38.9198 144.575 35.73 144.575V156.575C37.3702 156.575 38.2215 156.902 38.6377 157.154C38.9865 157.365 39.3704 157.719 39.7141 158.578L50.8559 154.122ZM35.73 144.575C32.5402 144.575 29.384 145.21 26.6152 146.884C23.779 148.598 21.8004 151.131 20.6041 154.122L31.7459 158.578C32.0896 157.719 32.4735 157.365 32.8223 157.154C33.2385 156.902 34.0898 156.575 35.73 156.575V144.575ZM20.6184 154.086C18.646 158.928 17.865 165.263 17.865 172.625H29.865C29.865 165.847 30.624 161.332 31.7316 158.614L20.6184 154.086ZM17.865 172.625C17.865 177.585 18.1541 181.92 18.7976 185.54L30.6124 183.44C30.1359 180.76 29.865 177.185 29.865 172.625H17.865ZM18.8018 185.563C19.5117 189.468 21.0036 193.031 23.5095 195.955L32.6205 188.145C31.7664 187.149 31.0184 185.672 30.6082 183.417L18.8018 185.563ZM23.6624 196.126C26.8672 199.588 31.2349 200.885 35.73 200.885V188.885C33.5051 188.885 32.7628 188.292 32.4676 187.974L23.6624 196.126ZM35.73 200.885C40.2099 200.885 44.6133 199.593 47.7745 196.036L38.8055 188.064C38.6068 188.287 37.9701 188.885 35.73 188.885V200.885ZM47.7656 196.046C50.3817 193.116 51.9387 189.521 52.6582 185.563L40.8518 183.417C40.4513 185.619 39.6983 187.064 38.8144 188.054L47.7656 196.046ZM52.6624 185.54C53.3059 181.92 53.595 177.585 53.595 172.625H41.595C41.595 177.185 41.3241 180.76 40.8476 183.44L52.6624 185.54Z" fill="#303443"/>
</svg>
