<svg width="427" height="86" viewBox="0 0 427 86" fill="none" xmlns="http://www.w3.org/2000/svg">
<path d="M45.478 46.6951C49.748 47.6051 53.178 49.7401 55.768 53.1001C58.358 56.3901 59.653 60.1701 59.653 64.4401C59.653 70.6001 57.483 75.5001 53.143 79.1401C48.873 82.7101 42.888 84.4951 35.188 84.4951H0.853018V10.7851H34.033C41.523 10.7851 47.368 12.5001 51.568 15.9301C55.838 19.3601 57.973 24.0151 57.973 29.8951C57.973 34.2351 56.818 37.8401 54.508 40.7101C52.268 43.5801 49.258 45.5751 45.478 46.6951ZM18.808 40.6051H30.568C33.508 40.6051 35.748 39.9751 37.288 38.7151C38.898 37.3851 39.703 35.4601 39.703 32.9401C39.703 30.4201 38.898 28.4951 37.288 27.1651C35.748 25.8351 33.508 25.1701 30.568 25.1701H18.808V40.6051ZM32.038 70.0051C35.048 70.0051 37.358 69.3401 38.968 68.0101C40.648 66.6101 41.488 64.6151 41.488 62.0251C41.488 59.4351 40.613 57.4051 38.863 55.9351C37.183 54.4651 34.838 53.7301 31.828 53.7301H18.808V70.0051H32.038ZM79.0969 19.8151C75.9469 19.8151 73.3569 18.9051 71.3269 17.0851C69.3669 15.1951 68.3869 12.8851 68.3869 10.1551C68.3869 7.35505 69.3669 5.04505 71.3269 3.22505C73.3569 1.33505 75.9469 0.39005 79.0969 0.39005C82.1769 0.39005 84.6969 1.33505 86.6569 3.22505C88.6869 5.04505 89.7019 7.35505 89.7019 10.1551C89.7019 12.8851 88.6869 15.1951 86.6569 17.0851C84.6969 18.9051 82.1769 19.8151 79.0969 19.8151ZM88.0219 25.9051V84.4951H70.0669V25.9051H88.0219ZM136.734 25.2751C143.594 25.2751 149.054 27.5151 153.114 31.9951C157.244 36.4051 159.309 42.4951 159.309 50.2651V84.4951H141.459V52.6801C141.459 48.7601 140.444 45.7151 138.414 43.5451C136.384 41.3751 133.654 40.2901 130.224 40.2901C126.794 40.2901 124.064 41.3751 122.034 43.5451C120.004 45.7151 118.989 48.7601 118.989 52.6801V84.4951H101.034V25.9051H118.989V33.6751C120.809 31.0851 123.259 29.0551 126.339 27.5851C129.419 26.0451 132.884 25.2751 136.734 25.2751Z" fill="#424242"/>
<path d="M169.371 70.1101C171.751 68.2201 172.836 67.3451 172.626 67.4851C179.486 61.8151 184.876 57.1601 188.796 53.5201C192.786 49.8801 196.146 46.0651 198.876 42.0751C201.606 38.0851 202.971 34.2001 202.971 30.4201C202.971 27.5501 202.306 25.3101 200.976 23.7001C199.646 22.0901 197.651 21.2851 194.991 21.2851C192.331 21.2851 190.231 22.3001 188.691 24.3301C187.221 26.2901 186.486 29.0901 186.486 32.7301H169.161C169.301 26.7801 170.561 21.8101 172.941 17.8201C175.391 13.8301 178.576 10.8901 182.496 9.00005C186.486 7.11005 190.896 6.16505 195.726 6.16505C204.056 6.16505 210.321 8.30005 214.521 12.57C218.791 16.8401 220.926 22.4051 220.926 29.2651C220.926 36.7551 218.371 43.7201 213.261 50.1601C208.151 56.5301 201.641 62.7601 193.731 68.8501H222.081V83.4451H169.371V70.1101Z" fill="#FF5F68"/>
<path d="M259.386 10.7851C267.156 10.7851 273.946 12.3251 279.756 15.4051C285.566 18.4851 290.046 22.8251 293.196 28.4251C296.416 33.9551 298.026 40.3601 298.026 47.6401C298.026 54.8501 296.416 61.2551 293.196 66.8551C290.046 72.4551 285.531 76.7951 279.651 79.8751C273.841 82.9551 267.086 84.4951 259.386 84.4951H231.771V10.7851H259.386ZM258.231 68.9551C265.021 68.9551 270.306 67.1001 274.086 63.3901C277.866 59.6801 279.756 54.4301 279.756 47.6401C279.756 40.8501 277.866 35.5651 274.086 31.7851C270.306 28.0051 265.021 26.1151 258.231 26.1151H249.726V68.9551H258.231ZM363.29 54.2551C363.29 55.9351 363.185 57.6851 362.975 59.5051H322.34C322.62 63.1451 323.775 65.9451 325.805 67.9051C327.905 69.7951 330.46 70.7401 333.47 70.7401C337.95 70.7401 341.065 68.8501 342.815 65.0701H361.925C360.945 68.9201 359.16 72.3851 356.57 75.4651C354.05 78.5451 350.865 80.9601 347.015 82.7101C343.165 84.4601 338.86 85.3351 334.1 85.3351C328.36 85.3351 323.25 84.1101 318.77 81.6601C314.29 79.2101 310.79 75.7101 308.27 71.1601C305.75 66.6101 304.49 61.2901 304.49 55.2001C304.49 49.1101 305.715 43.7901 308.165 39.2401C310.685 34.6901 314.185 31.1901 318.665 28.7401C323.145 26.2901 328.29 25.0651 334.1 25.0651C339.77 25.0651 344.81 26.2551 349.22 28.6351C353.63 31.0151 357.06 34.4101 359.51 38.8201C362.03 43.2301 363.29 48.3751 363.29 54.2551ZM344.915 49.5301C344.915 46.4501 343.865 44.0001 341.765 42.1801C339.665 40.3601 337.04 39.4501 333.89 39.4501C330.88 39.4501 328.325 40.3251 326.225 42.0751C324.195 43.8251 322.935 46.3101 322.445 49.5301H344.915ZM369.192 55.2001C369.192 49.1101 370.417 43.7901 372.867 39.2401C375.387 34.6901 378.852 31.1901 383.262 28.7401C387.742 26.2901 392.852 25.0651 398.592 25.0651C405.942 25.0651 412.067 26.9901 416.967 30.8401C421.937 34.6901 425.192 40.1151 426.732 47.1151H407.622C406.012 42.6351 402.897 40.3951 398.277 40.3951C394.987 40.3951 392.362 41.6901 390.402 44.2801C388.442 46.8001 387.462 50.4401 387.462 55.2001C387.462 59.9601 388.442 63.6351 390.402 66.2251C392.362 68.7451 394.987 70.0051 398.277 70.0051C402.897 70.0051 406.012 67.7651 407.622 63.2851H426.732C425.192 70.1451 421.937 75.5351 416.967 79.4551C411.997 83.3751 405.872 85.3351 398.592 85.3351C392.852 85.3351 387.742 84.1101 383.262 81.6601C378.852 79.2101 375.387 75.7101 372.867 71.1601C370.417 66.6101 369.192 61.2901 369.192 55.2001Z" fill="#5F95FF"/>
</svg>
